<?xml version="1.0" encoding="UTF-8" standalone="no"?>
<svg
   xmlns:dc="http://purl.org/dc/elements/1.1/"
   xmlns:cc="http://creativecommons.org/ns#"
   xmlns:rdf="http://www.w3.org/1999/02/22-rdf-syntax-ns#"
   xmlns:svg="http://www.w3.org/2000/svg"
   xmlns="http://www.w3.org/2000/svg"
   xmlns:sodipodi="http://sodipodi.sourceforge.net/DTD/sodipodi-0.dtd"
   xmlns:inkscape="http://www.inkscape.org/namespaces/inkscape"
   id="master-artboard"
   viewBox="0 0 1399.964 210.1274"
   version="1.1"
   x="0px"
   y="0px"
   width="1399.964"
   height="210.1274"
   sodipodi:docname="samsung-logo.svg"
   inkscape:version="0.92.4 (5da689c313, 2019-01-14)">
  <metadata
     id="metadata32">
    <rdf:RDF>
      <cc:Work
         rdf:about="">
        <dc:format>image/svg+xml</dc:format>
        <dc:type
           rdf:resource="http://purl.org/dc/dcmitype/StillImage" />
      </cc:Work>
    </rdf:RDF>
  </metadata>
  <defs
     id="defs30" />
  <sodipodi:namedview
     pagecolor="#ffffff"
     bordercolor="#666666"
     borderopacity="1"
     objecttolerance="10"
     gridtolerance="10"
     guidetolerance="10"
     inkscape:pageopacity="0"
     inkscape:pageshadow="2"
     inkscape:window-width="1920"
     inkscape:window-height="1057"
     id="namedview28"
     showgrid="false"
     inkscape:zoom="0.90612245"
     inkscape:cx="699.99999"
     inkscape:cy="105.06152"
     inkscape:window-x="1912"
     inkscape:window-y="212"
     inkscape:window-maximized="1"
     inkscape:current-layer="master-artboard" />
  <rect
     id="ee-background"
     x="-1.2592204e-05"
     y="-384.93411"
     width="1400"
     height="980"
     style="fill:#ffffff;fill-opacity:0" />
  <g
     transform="matrix(2.9999979,0,0,2.9999979,0,0.00594672)"
     id="g25">
    <path
       style="fill:#fbfbfb;fill-opacity:1;fill-rule:nonzero;stroke:none"
       d="M 749.594,505.797 H 537.98 L 454.016,31.414 h 129.523 l 53.801,369.391 h 12.894 l 53.805,-369.39 h 129.52 l -83.965,474.382 m 614.186,-474.383 -5.97,356.754 h -11.93 L 1285.01,31.414 h -127.36 l -60.87,356.754 h -11.93 L 1078.88,31.414 H 958.059 l 19.421,474.383 h 202.71 l 35.79,-262.098 h 10.69 l 35.79,262.098 h 202.71 L 1484.6,31.414 h -120.82 m 744.76,104.668 -0.4,369.715 h 133.3 V 142.344 l -0.08,-1.965 0.03,-1.914 0.13,-1.922 0.23,-1.875 0.31,-1.84 0.42,-1.812 0.51,-1.789 0.6,-1.75 0.67,-1.688 0.76,-1.672 0.84,-1.609 0.91,-1.563 1,-1.523 1.07,-1.465 1.13,-1.406 1.2,-1.348 1.27,-1.289 1.33,-1.223 1.4,-1.16 1.44,-1.074 1.51,-1.016 1.56,-0.957 1.61,-0.847 1.65,-0.793 1.7,-0.703 1.75,-0.618 1.78,-0.535 1.83,-0.429 1.85,-0.352 1.89,-0.254 1.92,-0.144 1.96,-0.051 1.94,0.051 1.92,0.144 1.9,0.254 1.85,0.352 1.83,0.429 1.79,0.535 1.73,0.618 1.71,0.703 1.65,0.793 1.62,0.847 1.55,0.957 1.5,1.016 1.46,1.074 1.39,1.16 1.33,1.223 1.27,1.289 1.2,1.348 1.14,1.406 1.07,1.465 0.99,1.523 0.92,1.563 0.83,1.609 0.77,1.672 0.67,1.688 0.6,1.75 0.49,1.789 0.42,1.812 0.32,1.84 0.23,1.875 0.13,1.922 0.03,1.914 -0.07,1.965 v 363.453 h 133.02 V 133.934 l -0.23,-7.942 -0.72,-7.683 -1.18,-7.442 -1.62,-7.179 -2.07,-6.93 -2.49,-6.672 -2.88,-6.426 -3.29,-6.183 -3.64,-5.918 -4.01,-5.664 -4.35,-5.418 -4.68,-5.168 -4.98,-4.891 -5.28,-4.656 -5.56,-4.414 -5.82,-4.153 -6.07,-3.906 -6.3,-3.652 -6.53,-3.38 -6.72,-3.144 -6.92,-2.89 -7.08,-2.637 -7.22,-2.371 -7.39,-2.14 -7.49,-1.876 -7.61,-1.61 -15.48,-2.491 -15.72,-1.477 -15.85,-0.445 -15.85,0.562 -15.74,1.555 -15.47,2.59 -7.61,1.676 -7.5,1.925 -7.37,2.188 -7.23,2.43 -7.09,2.699 -6.9,2.937 -6.72,3.203 -6.52,3.457 -6.31,3.704 -6.06,3.96 -5.82,4.22 -5.56,4.476 -5.27,4.715 -4.98,4.98 -4.67,5.242 -4.34,5.48 -4.01,5.743 -3.64,6.008 -3.27,6.25 -2.88,6.504 -2.48,6.754 -2.06,7.023 -1.63,7.273 -1.18,7.532 -0.7,7.785 -0.24,8.035 m 903.81,369.715 H 2896.98 V 209.051 h -2.73 L 2759.92,505.797 H 2617.69 V 31.414 h 115.35 v 277.172 h 2.75 L 2861.62,31.414 h 150.73 V 505.797 M 1625.83,124.852 v 62.683 h 132.71 l -0.92,-28.355 0.09,-6.543 0.4,-6.235 0.33,-2.996 0.45,-2.898 0.56,-2.793 0.7,-2.707 0.84,-2.586 0.47,-1.25 0.51,-1.223 0.56,-1.203 0.6,-1.16 0.64,-1.145 0.67,-1.089 0.76,-1.067 0.76,-1.035 0.82,-0.996 0.89,-0.969 0.92,-0.926 0.99,-0.886 1.03,-0.871 1.09,-0.821 1.15,-0.781 1.2,-0.754 1.26,-0.699 1.34,-0.664 1.4,-0.617 1.44,-0.586 1.52,-0.547 1.59,-0.496 3.37,-0.864 3.65,-0.691 3.95,-0.508 4.25,-0.32 h 1.88 l 0.95,0.047 0.96,0.097 0.97,0.125 0.97,0.188 0.98,0.195 1,0.254 1.96,0.613 1.96,0.754 1.98,0.899 1.92,1.035 1.91,1.191 1.84,1.321 1.81,1.472 1.74,1.575 1.65,1.738 1.58,1.844 1.46,1.984 1.39,2.105 1.24,2.219 1.12,2.344 0.98,2.449 0.84,2.57 0.66,2.688 0.49,2.781 0.32,2.91 0.11,2.989 -0.07,3.105 -0.3,3.192 -0.52,3.3 -0.75,3.379 -1.01,3.488 -1.26,3.567 -1.51,3.648 -1.81,3.743 -0.96,1.765 -1.03,1.738 -1.07,1.661 -1.16,1.625 -1.2,1.582 -1.26,1.543 -2.71,2.925 -2.92,2.817 -3.16,2.676 -3.37,2.546 -3.57,2.469 -7.73,4.707 -8.48,4.531 -18.93,9.094 -21.19,10.02 -22.99,12.051 -12.04,7.128 -12.3,8.055 -12.53,9.106 -12.7,10.3 -1.87,1.336 -1.81,1.422 -1.76,1.496 -1.71,1.571 -1.66,1.644 -1.61,1.715 -3.07,3.633 -2.87,3.898 -2.68,4.137 -2.5,4.348 -2.32,4.562 -2.14,4.75 -1.97,4.918 -1.81,5.07 -1.63,5.211 -2.8,10.754 -2.21,11.094 -1.64,11.281 -1.11,11.34 -0.62,11.27 -0.17,11.043 0.25,10.679 0.64,10.188 0.98,9.554 1.3,8.774 1.34,6.496 1.71,6.25 2.09,5.996 2.45,5.754 2.77,5.519 3.11,5.27 3.43,5.027 3.73,4.786 4.03,4.562 4.29,4.324 4.57,4.098 4.81,3.867 5.05,3.633 5.28,3.418 5.5,3.187 5.7,2.973 5.88,2.75 6.05,2.539 6.22,2.32 6.37,2.11 13.13,3.597 13.58,2.77 13.91,1.957 14.16,1.176 14.3,0.402 14.31,-0.355 14.25,-1.102 14.07,-1.816 13.82,-2.524 13.42,-3.219 12.95,-3.89 12.36,-4.539 11.67,-5.188 5.56,-2.828 5.33,-2.976 5.12,-3.137 4.87,-3.274 4.64,-3.433 4.36,-3.574 4.1,-3.715 3.81,-3.86 3.52,-4 3.19,-4.132 2.87,-4.27 1.3,-2.184 1.23,-2.214 1.14,-2.258 1.04,-2.274 0.96,-2.32 0.86,-2.344 0.77,-2.379 0.67,-2.406 0.58,-2.441 0.48,-2.469 0.36,-2.508 0.28,-2.527 0.17,-2.563 0.06,-2.597 v -65.5 l -121.02,0.054 1.05,27.485 -0.05,6.113 -0.35,5.738 -0.32,2.719 -0.44,2.629 -0.54,2.516 -0.69,2.402 -0.42,1.16 -0.42,1.133 -0.48,1.094 -0.51,1.074 -0.56,1.039 -0.6,1.012 -0.65,0.98 -0.69,0.942 -0.75,0.918 -0.79,0.886 -0.85,0.848 -0.88,0.812 -0.96,0.774 -1.01,0.75 -1.06,0.715 -1.12,0.672 -1.18,0.636 -1.24,0.606 -1.31,0.562 -1.36,0.535 -1.44,0.485 -1.49,0.457 -3.22,0.785 -3.48,0.625 -3.79,0.461 -4.09,0.297 -4.42,0.125 -1.6,-0.125 -1.65,-0.235 -1.72,-0.332 -1.76,-0.441 -1.78,-0.539 -1.81,-0.656 -1.82,-0.754 -1.8,-0.86 -1.81,-0.964 -1.77,-1.079 -1.73,-1.191 -1.69,-1.297 -1.63,-1.402 -1.55,-1.516 -1.47,-1.625 -1.37,-1.75 -0.65,-0.918 -0.62,-0.937 -0.6,-0.969 -0.55,-0.996 -0.54,-1.028 -0.48,-1.058 -0.46,-1.086 -0.41,-1.117 -0.4,-1.137 -0.33,-1.18 -0.3,-1.195 -0.26,-1.234 -0.21,-1.254 -0.19,-1.293 -0.11,-1.321 -0.08,-1.343 -0.03,-1.379 0.03,-1.406 0.08,-1.442 0.12,-1.465 0.43,-3.023 0.68,-3.152 0.91,-3.262 1.17,-3.395 1.43,-3.515 1.72,-3.633 3.46,-4.293 3.55,-4.078 3.67,-3.887 3.74,-3.703 7.73,-6.887 8.02,-6.25 8.27,-5.679 8.46,-5.211 8.61,-4.786 8.73,-4.453 35.21,-15.89 17.17,-7.836 8.32,-4.149 8.1,-4.402 7.81,-4.723 7.51,-5.133 3.61,-2.734 3.53,-2.863 3.42,-3.004 3.31,-3.141 3.2,-3.304 3.08,-3.469 2.97,-3.637 2.83,-3.816 2.7,-4.02 2.56,-4.222 2.41,-4.426 2.28,-4.649 2.11,-4.882 1.95,-5.118 1.79,-5.351 1.61,-5.625 1.45,-5.891 1.25,-6.148 1.07,-6.45 0.88,-6.746 1.15,-14.382 0.31,-15.684 -0.56,-17.055 -1.48,-18.465 -0.92,-7.05 -1.37,-6.797 -1.78,-6.574 -2.18,-6.329 -2.57,-6.09 -2.94,-5.87 -3.3,-5.625 -3.64,-5.403 -3.99,-5.164 -4.29,-4.933 -4.6,-4.707 -4.89,-4.461 -5.17,-4.25 -5.42,-4.012 -5.67,-3.79 -5.91,-3.566 -6.11,-3.34 -6.33,-3.093 -6.51,-2.89 -6.69,-2.669 -6.85,-2.43 -7,-2.226 -14.39,-3.77 -14.79,-2.89 -15.1,-2.024 -15.3,-1.14 -15.37,-0.301 -15.34,0.562 -15.19,1.399 -14.92,2.246 -14.55,3.074 -14.07,3.918 -13.45,4.735 -6.46,2.668 -6.28,2.87 -6.06,3.087 -5.84,3.273 -5.6,3.484 -5.36,3.672 -5.1,3.875 -4.81,4.082 -4.52,4.29 -4.21,4.46 -3.9,4.68 -3.55,4.852 -3.21,5.078 -1.47,2.582 -1.37,2.664 -1.29,2.695 -1.18,2.754 -1.09,2.793 -0.98,2.844 -0.89,2.886 -0.78,2.934 -0.68,2.984 -0.57,3.047 -0.46,3.067 -0.35,3.136 -0.24,3.172 -0.12,3.235 m -1462.334,400.476 -20.637,-1.332 -18.91,-2.469 -8.836,-1.648 -8.425,-1.899 -8.036,-2.156 -7.636,-2.39 -7.262,-2.625 -6.879,-2.848 -6.523,-3.055 -6.157,-3.269 -5.804,-3.457 -5.461,-3.645 -5.13,-3.828 -4.792,-3.996 -4.477,-4.145 -4.16,-4.3 -3.86,-4.446 -3.562,-4.578 -3.273,-4.699 -2.988,-4.809 -2.715,-4.918 -2.442,-5.015 -2.191,-5.102 -1.934,-5.176 -1.687,-5.25 -1.461,-5.304 -1.227,-5.364 -1.008,-5.394 -0.789,-5.43 -0.597,-5.453 -0.59,-10.949 0.14,-10.938 0.801,-10.839 1.414,-10.688 1.957,-10.453 2.43,-10.156 2.863,-9.778 3.211,-9.332 3.52,-8.8 3.742,-8.215 3.926,-7.551 4.039,-6.809 4.09,-5.996 2.043,-2.676 2.03,-2.445 2.016,-2.207 1.989,-1.953 1.96,-1.703 0.966,-0.754 0.953,-0.684 12.695,-10.3 12.531,-9.106 12.309,-8.055 12.039,-7.128 22.992,-12.051 21.192,-10.02 18.929,-9.094 8.469,-4.531 7.734,-4.707 3.575,-2.469 3.363,-2.546 3.148,-2.676 2.938,-2.817 2.703,-2.925 1.266,-1.543 1.207,-1.582 1.14,-1.625 1.082,-1.661 1.024,-1.738 0.957,-1.765 1.804,-3.743 1.532,-3.648 1.257,-3.567 1,-3.488 0.754,-3.379 0.524,-3.3 0.293,-3.192 0.082,-3.105 -0.121,-2.989 -0.317,-2.91 -0.496,-2.781 -0.668,-2.688 -0.828,-2.57 -0.984,-2.449 -1.114,-2.344 -1.25,-2.219 -1.371,-2.105 -1.468,-1.984 -1.582,-1.844 -1.657,-1.738 -1.734,-1.575 -1.801,-1.472 -1.855,-1.321 -1.903,-1.191 -1.929,-1.035 -1.965,-0.899 -1.961,-0.754 -1.981,-0.613 -0.98,-0.254 -0.981,-0.195 -0.972,-0.188 -0.977,-0.125 -0.957,-0.097 -0.953,-0.047 h -1.875 l -4.246,0.32 -3.949,0.508 -3.66,0.691 -3.379,0.864 -1.582,0.496 -1.512,0.547 -1.457,0.586 -1.387,0.617 -1.332,0.664 -1.262,0.699 -1.21,0.754 -1.145,0.781 -1.09,0.821 -1.035,0.871 -0.98,0.886 -0.93,0.926 -0.879,0.969 -0.828,0.996 -0.778,1.035 -0.726,1.067 -0.691,1.089 -0.633,1.145 -0.602,1.16 -0.551,1.203 -0.511,1.223 -0.477,1.25 -0.84,2.586 -0.691,2.707 -0.567,2.793 -0.445,2.898 -0.34,2.996 -0.394,6.235 -0.094,6.543 0.926,28.355 H 0 v -62.683 l 0.121,-3.235 0.246,-3.172 0.348,-3.136 0.46,-3.067 0.567,-3.047 0.68,-2.984 0.781,-2.934 0.89,-2.886 0.985,-2.844 1.086,-2.793 1.18,-2.754 1.285,-2.695 1.383,-2.664 1.46,-2.582 3.204,-5.078 3.562,-4.852 3.89,-4.68 4.212,-4.46 4.523,-4.29 4.809,-4.082 5.101,-3.875 5.348,-3.672 5.613,-3.484 5.84,-3.274 6.07,-3.085 6.262,-2.872 6.477,-2.668 13.453,-4.734 14.055,-3.918 14.55,-3.074 14.918,-2.246 15.188,-1.399 15.336,-0.562 15.375,0.3 15.297,1.141 15.101,2.024 14.801,2.89 14.383,3.77 7,2.226 6.848,2.43 6.691,2.668 6.516,2.89 6.324,3.094 6.121,3.34 5.906,3.567 5.66,3.789 5.43,4.011 5.168,4.25 4.887,4.461 4.593,4.707 4.301,4.934 3.977,5.164 3.652,5.402 3.301,5.625 2.937,5.872 2.571,6.089 2.183,6.329 1.778,6.574 1.363,6.797 0.922,7.05 1.484,18.465 0.567,17.055 -0.321,15.684 -1.148,14.382 -0.879,6.746 -1.067,6.45 -1.265,6.148 -1.434,5.891 -1.617,5.625 -1.785,5.351 -1.953,5.118 -2.106,4.882 -2.277,4.649 -2.414,4.426 -2.566,4.222 -2.7,4.02 -2.832,3.816 -2.961,3.637 -3.086,3.469 -3.195,3.304 -3.316,3.141 -3.422,3.004 -3.516,2.863 -3.621,2.734 -7.5,5.133 -7.816,4.723 -8.09,4.402 -8.324,4.149 -17.168,7.836 -35.211,15.89 -8.731,4.453 -8.625,4.786 -8.461,5.211 -8.258,5.679 -8.019,6.25 -7.731,6.887 -3.742,3.703 -3.66,3.887 -3.558,4.078 -3.461,4.293 -1.719,3.633 -1.438,3.515 -1.168,3.395 -0.914,3.262 -0.664,3.152 -0.433,3.023 -0.129,1.465 -0.078,1.442 -0.024,1.406 0.024,1.379 0.078,1.343 0.121,1.321 0.164,1.293 0.215,1.254 0.269,1.234 0.297,1.195 0.344,1.18 0.379,1.137 0.426,1.117 0.453,1.086 0.496,1.058 0.531,1.028 0.563,0.996 0.586,0.969 0.617,0.937 0.648,0.918 1.375,1.75 1.473,1.625 1.554,1.516 1.625,1.402 1.692,1.297 1.73,1.191 1.774,1.079 1.793,0.964 1.82,0.86 1.816,0.754 1.805,0.656 1.789,0.539 1.754,0.441 1.711,0.332 1.66,0.235 1.598,0.125 4.41,-0.125 4.102,-0.297 3.785,-0.461 3.492,-0.625 3.207,-0.785 1.496,-0.457 1.434,-0.485 1.367,-0.535 1.308,-0.562 1.239,-0.606 1.176,-0.636 1.121,-0.672 1.07,-0.715 1.004,-0.75 0.945,-0.774 0.895,-0.812 0.843,-0.848 0.797,-0.886 0.739,-0.918 0.699,-0.942 0.644,-0.98 0.606,-1.012 0.558,-1.039 0.52,-1.074 0.473,-1.094 0.441,-1.133 0.391,-1.16 0.691,-2.402 0.555,-2.516 0.433,-2.629 0.317,-2.719 0.347,-5.738 0.043,-6.113 -1.05,-27.485 121.035,-0.054 v 65.5 l -0.098,3.543 -0.234,3.457 -0.36,3.371 -0.496,3.289 -0.625,3.215 -0.75,3.129 -0.871,3.046 -0.988,2.969 -1.11,2.891 -1.218,2.816 -1.34,2.739 -1.442,2.671 -1.546,2.59 -1.653,2.52 -1.758,2.445 -1.843,2.371 -1.946,2.305 -2.035,2.238 -2.125,2.168 -2.211,2.106 -4.672,3.996 -4.984,3.742 -5.277,3.5 -5.543,3.242 -5.793,3.02 -6.008,2.777 -6.223,2.562 -6.39,2.356 -13.235,4.09 -13.683,3.332 -13.961,2.625 -14.059,1.976 -13.969,1.399 -26.988,1.277 M 3349.34,0.352 l 15.15,-0.356 14.11,0.285 13.1,0.899 12.14,1.472 11.2,2.024 10.29,2.527 4.83,1.445 4.62,1.567 4.4,1.687 4.22,1.778 4,1.894 3.82,1.992 3.64,2.09 3.45,2.188 3.27,2.265 3.1,2.364 2.93,2.43 2.76,2.511 2.61,2.605 2.45,2.66 2.3,2.723 2.16,2.793 2.01,2.832 1.89,2.91 1.74,2.95 1.63,3 1.49,3.023 1.37,3.078 2.43,6.25 2.01,6.348 1.63,6.434 1.29,6.464 0.99,6.497 0.71,6.445 0.49,6.418 0.43,12.527 -0.05,11.942 -0.34,21.125 v 129.234 h -156.35 v -68.785 h 31.89 v -81.289 l -0.05,-1.77 -0.13,-1.726 -0.22,-1.719 -0.3,-1.668 -0.39,-1.66 -0.45,-1.614 -0.53,-1.589 -0.62,-1.555 -0.68,-1.516 -0.75,-1.465 -0.83,-1.433 -0.89,-1.375 -0.95,-1.352 -1.02,-1.289 -1.07,-1.226 -1.12,-1.203 -1.19,-1.125 -1.25,-1.075 -1.29,-1.011 -1.34,-0.957 -1.38,-0.891 -1.43,-0.82 -1.48,-0.75 -1.5,-0.688 -1.56,-0.613 -1.58,-0.535 -1.62,-0.461 -1.66,-0.39 -1.68,-0.282 -1.71,-0.227 -1.74,-0.129 -1.75,-0.047 -1.75,0.047 -1.75,0.13 -1.71,0.226 -1.67,0.281 -1.66,0.39 -1.62,0.462 -1.59,0.535 -1.54,0.613 -1.53,0.688 -1.46,0.75 -1.43,0.82 -1.4,0.891 -1.33,0.957 -1.29,1.011 -1.23,1.075 -1.19,1.125 -1.14,1.203 -1.07,1.226 -1.02,1.289 -0.94,1.352 -0.89,1.375 -0.82,1.433 -0.75,1.465 -0.7,1.516 -0.6,1.555 -0.54,1.589 -0.46,1.614 -0.38,1.66 -0.3,1.668 -0.22,1.719 -0.13,1.726 -0.04,1.77 V 394.32 l 0.04,1.75 0.13,1.739 0.22,1.711 0.3,1.679 0.38,1.656 0.46,1.625 0.54,1.583 0.61,1.55 0.69,1.52 0.75,1.465 0.82,1.437 0.89,1.387 0.94,1.336 1.02,1.297 1.07,1.226 1.14,1.196 1.19,1.125 1.23,1.082 1.29,1.007 1.33,0.954 1.4,0.886 1.43,0.821 1.46,0.757 1.53,0.684 1.54,0.609 1.59,0.539 1.62,0.465 1.66,0.379 1.67,0.305 1.71,0.215 1.75,0.125 1.75,0.043 1.75,-0.043 1.74,-0.125 1.71,-0.215 1.68,-0.305 1.66,-0.379 1.62,-0.465 1.58,-0.539 1.56,-0.609 1.5,-0.684 1.48,-0.757 1.43,-0.821 1.38,-0.886 1.34,-0.954 1.29,-1.007 1.25,-1.082 1.19,-1.125 1.12,-1.196 1.07,-1.226 1.02,-1.297 0.95,-1.336 0.89,-1.387 0.83,-1.437 0.75,-1.465 0.68,-1.52 0.62,-1.55 0.53,-1.583 0.45,-1.625 0.39,-1.656 0.3,-1.679 0.22,-1.711 0.13,-1.739 0.05,-1.75 v -43.773 h 124.46 v 54.195 l -0.23,6.836 -0.29,3.332 -0.4,3.281 -0.51,3.223 -0.62,3.176 -0.72,3.117 -0.84,3.063 -0.92,3.011 -1.04,2.953 -1.13,2.903 -1.23,2.847 -1.33,2.793 -1.41,2.735 -3.11,5.312 -3.46,5.102 -3.8,4.883 -4.12,4.664 -4.42,4.445 -4.72,4.238 -5.01,4.016 -5.25,3.805 -5.52,3.578 -5.74,3.375 -5.96,3.148 -6.17,2.93 -6.37,2.722 -6.53,2.508 -6.7,2.289 -13.82,3.926 -14.29,3.07 -14.64,2.2 -14.88,1.347 -14.99,0.477 -15,-0.379 -14.87,-1.246 -14.64,-2.106 -14.29,-2.961 -13.81,-3.82 -6.69,-2.238 -6.54,-2.453 -6.36,-2.664 -6.17,-2.875 -5.96,-3.094 -5.75,-3.301 -5.51,-3.527 -5.26,-3.735 -5,-3.949 -4.71,-4.176 -4.43,-4.375 -4.11,-4.593 -3.8,-4.817 -3.45,-5.023 -3.11,-5.231 -1.42,-2.699 -1.31,-2.754 -1.23,-2.804 -1.14,-2.86 -1.02,-2.914 -0.94,-2.965 -0.81,-3.023 -0.74,-3.07 -0.61,-3.129 -0.52,-3.184 -0.4,-3.234 -0.29,-3.285 -0.22,-6.735 v -298.09 l 0.04,-4.48 0.18,-4.367 0.34,-4.258 0.5,-4.13 0.64,-4.026 0.76,-3.907 0.91,-3.789 1.04,-3.687 1.17,-3.559 1.31,-3.465 1.42,-3.347 1.54,-3.246 1.66,-3.165 1.77,-3.035 1.87,-2.949 1.99,-2.851 2.08,-2.747 2.2,-2.656 2.28,-2.555 2.38,-2.453 2.46,-2.382 2.55,-2.278 5.34,-4.304 5.65,-3.965 5.91,-3.645 6.17,-3.308 6.38,-3.008 6.57,-2.715 6.73,-2.45 6.88,-2.167 6.98,-1.926 14.18,-3.125 14.28,-2.246 14.18,-1.453 13.85,-0.794 13.29,-0.203 12.53,0.254"
       transform="matrix(0.13333,0,0,-0.13333,0,70.04)"
       id="path23"
       inkscape:connector-curvature="0" />
  </g>
</svg>
