<?xml version="1.0" encoding="UTF-8" standalone="no"?>
<svg
   xmlns:dc="http://purl.org/dc/elements/1.1/"
   xmlns:cc="http://creativecommons.org/ns#"
   xmlns:rdf="http://www.w3.org/1999/02/22-rdf-syntax-ns#"
   xmlns:svg="http://www.w3.org/2000/svg"
   xmlns="http://www.w3.org/2000/svg"
   xmlns:sodipodi="http://sodipodi.sourceforge.net/DTD/sodipodi-0.dtd"
   xmlns:inkscape="http://www.inkscape.org/namespaces/inkscape"
   id="master-artboard"
   viewBox="0 0 1399.9659 340.31812"
   version="1.1"
   x="0px"
   y="0px"
   width="1399.9659"
   height="340.31812"
   sodipodi:docname="seagate-logo.svg"
   inkscape:version="0.92.4 (5da689c313, 2019-01-14)">
  <metadata
     id="metadata40">
    <rdf:RDF>
      <cc:Work
         rdf:about="">
        <dc:format>image/svg+xml</dc:format>
        <dc:type
           rdf:resource="http://purl.org/dc/dcmitype/StillImage" />
      </cc:Work>
    </rdf:RDF>
  </metadata>
  <defs
     id="defs38" />
  <sodipodi:namedview
     pagecolor="#ffffff"
     bordercolor="#666666"
     borderopacity="1"
     objecttolerance="10"
     gridtolerance="10"
     guidetolerance="10"
     inkscape:pageopacity="0"
     inkscape:pageshadow="2"
     inkscape:window-width="1920"
     inkscape:window-height="1057"
     id="namedview36"
     showgrid="false"
     inkscape:zoom="0.90612245"
     inkscape:cx="707.83332"
     inkscape:cy="171.15689"
     inkscape:window-x="1912"
     inkscape:window-y="212"
     inkscape:window-maximized="1"
     inkscape:current-layer="master-artboard" />
  <rect
     id="ee-background"
     x="7.8333206"
     y="-320.83878"
     width="1400"
     height="980"
     style="fill:#ffffff;fill-opacity:0" />
  <g
     transform="matrix(2.8378398,0,0,2.8378398,4.1129228e-8,0.00435706)"
     id="g33">
    <path
       style="fill:#ffffff;fill-opacity:1;fill-rule:nonzero;stroke:none"
       d="m 348.617,880.84 c 11.621,6.973 23.242,13.945 34.863,18.594 4.649,-11.621 11.622,-23.243 16.27,-34.86 C 374.184,850.629 348.617,839.008 325.375,822.738 260.305,783.227 199.871,736.746 148.746,678.645 109.234,632.156 76.696,576.383 69.723,513.629 c -2.32,-37.184 4.648,-76.695 27.89,-106.91 20.918,-25.567 53.457,-44.16 85.996,-48.809 37.18,-6.972 76.696,-2.324 111.551,6.973 72.051,18.594 137.125,53.457 199.879,90.644 37.184,23.243 74.371,46.485 104.586,79.02 11.621,13.945 20.918,30.215 20.918,48.808 0,13.946 -9.297,27.891 -20.918,32.54 -11.621,6.972 -27.891,9.293 -41.836,6.972 -18.594,-4.648 -37.187,-13.945 -55.777,-23.242 -53.457,-27.891 -99.938,-65.078 -153.395,-92.965 -32.539,-16.269 -67.394,-32.539 -104.586,-32.539 -23.242,0 -46.48,9.297 -60.422,27.891 -11.621,13.941 -16.269,30.211 -13.945,48.804 2.324,27.891 13.945,55.782 30.207,76.696 30.219,41.836 72.055,72.051 116.207,97.617 74.375,48.801 155.719,88.312 241.711,111.555 46.484,11.621 92.965,18.589 139.445,16.269 67.399,-2.324 134.801,-23.242 190.579,-62.754 C 952.891,743.715 1001.69,669.348 1006.34,588.004 1013.32,520.602 992.402,453.203 962.188,392.773 938.945,346.289 906.406,304.465 871.543,267.277 843.656,237.063 813.441,209.172 783.227,183.605 743.723,148.738 699.563,118.527 655.398,90.645 611.246,62.754 562.438,39.512 513.633,18.594 499.688,11.62 483.418,4.648 469.473,0 c -9.297,41.836 -23.243,83.672 -32.539,125.496 39.511,18.598 79.023,34.867 118.531,55.781 44.16,23.246 85.988,53.461 125.504,83.672 34.859,27.895 67.398,55.785 97.609,88.313 51.133,53.457 92.965,123.183 102.262,197.554 2.324,27.891 2.324,53.457 -4.649,81.348 -16.265,55.777 -55.777,104.582 -109.234,132.469 -44.152,23.242 -95.285,32.539 -144.09,27.89 -72.051,-4.648 -139.449,-32.539 -202.203,-65.074 -30.211,-16.265 -58.101,-32.539 -85.992,-51.129 -27.891,-16.269 -53.449,-34.867 -74.367,-60.425 -9.297,-11.622 -16.274,-25.567 -16.274,-39.512 0,-9.297 6.977,-20.918 16.274,-23.242 16.265,-6.973 34.855,0 51.125,6.972 76.699,37.188 141.773,95.289 223.117,123.176 39.512,13.949 85.996,16.274 125.504,0 32.539,-13.941 58.101,-44.156 65.078,-79.016 2.32,-20.918 2.32,-41.835 -4.649,-60.429 -11.625,-30.215 -30.214,-55.778 -53.46,-79.02 -27.887,-27.89 -60.422,-51.133 -92.961,-72.051 C 527.574,367.207 483.418,336.992 434.609,316.086 392.777,297.488 346.293,281.223 302.133,269.602 251.008,255.652 197.551,253.328 146.422,264.949 95.289,276.57 53.457,304.465 30.215,343.977 9.297,376.504 0,416.016 0,453.203 c 2.324,44.156 11.621,88.317 30.215,127.828 32.535,67.399 81.344,127.828 139.449,176.629 55.774,48.809 116.203,90.645 181.277,125.504 l -2.324,-2.324"
       transform="matrix(0.13333,0,0,-0.13333,0,119.92)"
       id="path27"
       inkscape:connector-curvature="0" />
    <path
       style="fill:#ffffff;fill-opacity:1;fill-rule:nonzero;stroke:none"
       d="m 3521.04,576.383 h 171.99 V 541.52 h -134.8 V 462.5 h 127.82 V 427.637 H 3558.23 V 343.965 H 3700 v -34.852 h -178.96 z m -390.44,0 h 209.17 V 541.52 h -86 V 309.113 h -37.19 V 541.52 h -85.98 z m -257.98,0 h 32.53 c 37.18,-88.317 76.7,-176.637 113.88,-267.27 -13.94,0 -27.89,-2.328 -41.83,0 -11.62,20.918 -18.6,44.149 -27.89,65.067 h -125.5 c -9.3,-20.918 -16.27,-44.149 -25.57,-65.067 -13.94,-2.328 -27.89,0 -41.83,0 39.51,88.309 79.02,178.953 118.53,267.27 z m -843.66,0 h 32.53 c 37.19,-88.317 76.7,-176.637 113.89,-267.27 -13.94,0 -27.89,-2.328 -41.84,0 -9.29,20.918 -18.59,44.149 -27.89,65.067 h -125.5 c -9.3,-20.918 -16.26,-44.149 -25.56,-65.067 h -41.84 c 37.19,88.309 79.02,178.953 116.21,267.27 z m -457.86,0 h 171.99 V 541.52 H 1605.97 V 462.5 h 125.5 v -34.863 h -125.5 c 0,-27.891 -2.33,-55.782 0,-83.672 9.29,-2.324 20.91,0 30.21,0 h 111.56 v -34.852 h -178.96 v 267.27 z m 839.02,-9.297 c 30.2,16.269 67.39,18.594 99.93,11.621 25.57,-4.648 48.81,-13.945 65.08,-32.539 -9.3,-9.297 -16.27,-18.594 -25.57,-27.891 -37.19,34.864 -102.27,39.512 -139.44,2.325 -39.51,-34.86 -44.16,-99.938 -16.27,-141.774 16.27,-23.242 39.51,-39.512 67.39,-44.16 27.89,-2.313 55.78,0 81.35,11.621 v 74.375 h -58.11 v 34.863 h 95.3 V 327.703 c 0,-4.644 -4.65,-6.969 -9.3,-9.297 -34.86,-16.265 -72.05,-20.918 -109.24,-18.59 -39.5,2.325 -76.69,23.243 -97.61,55.77 -23.24,32.539 -30.21,74.375 -23.24,111.562 6.97,41.832 32.54,79.02 72.05,97.614 z m -1169.04,0 c 27.89,16.269 60.43,16.269 90.64,9.297 16.27,-2.324 30.21,-13.945 41.83,-25.567 -9.29,-9.296 -18.59,-18.593 -30.21,-27.89 -18.59,25.566 -58.1,30.215 -83.67,13.945 -16.27,-11.621 -20.92,-37.183 -9.29,-53.453 11.62,-13.945 30.21,-18.594 48.8,-25.566 20.92,-4.649 44.16,-11.622 60.43,-30.215 16.27,-16.27 18.59,-39.512 16.27,-60.43 -2.33,-23.23 -16.27,-44.148 -37.18,-55.769 -20.92,-11.622 -44.16,-16.274 -67.41,-13.95 -27.89,2.328 -55.78,13.95 -72.04,37.18 9.29,9.309 20.91,18.594 30.21,25.566 20.92,-30.203 67.4,-39.5 95.29,-16.257 16.27,11.609 20.91,37.175 6.97,53.445 -13.94,13.945 -34.86,18.594 -53.45,23.242 -20.92,6.973 -41.84,16.27 -55.78,34.863 -11.62,13.946 -13.95,34.864 -13.95,53.453 2.33,23.243 16.27,41.836 34.86,53.458 z m -357.916,-6.973 v 41.836 a 126.392,126.392 0 0 0 0,-41.836"
       transform="matrix(0.13333,0,0,-0.13333,0,119.92)"
       id="path29"
       inkscape:connector-curvature="0" />
    <path
       style="fill:#ffffff;fill-opacity:1;fill-rule:nonzero;stroke:none"
       d="m 2837.75,406.719 c 16.27,39.511 32.54,81.347 51.14,120.855 16.26,-39.508 32.53,-81.344 48.8,-120.855 z m -843.66,0 c 16.27,39.511 32.54,81.347 51.13,120.855 16.27,-39.508 32.54,-81.344 48.81,-120.855 h -99.94"
       transform="matrix(0.13333,0,0,-0.13333,0,119.92)"
       id="path31"
       inkscape:connector-curvature="0" />
  </g>
</svg>
